<svg xmlns="http://www.w3.org/2000/svg">
    <style>
        * {
            fill: #ccc;
            stroke: #000;
        }
    </style>
    <g class="fabrica">
        <rect x="0" y="0" height="300" width="300" style="stroke-opacity: 0"></rect>
        <!-- Columns -->
        <ellipse cx="290" cy="10" rx="2" ry="2"/>
        <ellipse cx="290" cy="30" rx="2" ry="2"/>
        <ellipse cx="290" cy="50" rx="2" ry="2"/>
        <ellipse cx="290" cy="70" rx="2" ry="2"/>
        <ellipse cx="290" cy="90" rx="2" ry="2"/>
        <ellipse cx="290" cy="110" rx="2" ry="2"/>
        <ellipse cx="290" cy="130" rx="2" ry="2"/>
        <ellipse cx="290" cy="170" rx="2" ry="2"/>
        <ellipse cx="290" cy="190" rx="2" ry="2"/>
        <ellipse cx="290" cy="210" rx="2" ry="2"/>
        <ellipse cx="290" cy="230" rx="2" ry="2"/>
        <ellipse cx="290" cy="250" rx="2" ry="2"/>
        <ellipse cx="290" cy="270" rx="2" ry="2"/>
        <ellipse cx="290" cy="290" rx="2" ry="2"/>
        <!-- Rooms -->
        <line x1="225" y1="0" x2="225" y2="300" stroke-dasharray="140 20 140"></line>
        <line x1="275" y1="0" x2="275" y2="300" stroke-dasharray="140 20 140"></line>
        <line x1="225" y1="0" x2="275" y2="0"></line>
        <line x1="225" y1="300" x2="275" y2="300"></line>
        <rect x="225" y="50" width="50" height="75"></rect>
        <rect x="225" y="175" width="50" height="75"></rect>
        <!-- Courtyard -->
        <ellipse cx="50" cy="50" rx="2" ry="2"/>
        <ellipse cx="70" cy="50" rx="2" ry="2"/>
        <ellipse cx="90" cy="50" rx="2" ry="2"/>
        <ellipse cx="110" cy="50" rx="2" ry="2"/>
        <ellipse cx="130" cy="50" rx="2" ry="2"/>
        <ellipse cx="150" cy="50" rx="2" ry="2"/>
        <ellipse cx="170" cy="50" rx="2" ry="2"/>
        <ellipse cx="190" cy="50" rx="2" ry="2"/>

        <ellipse cx="210" cy="50" rx="2" ry="2"/>
        <ellipse cx="210" cy="70" rx="2" ry="2"/>
        <ellipse cx="210" cy="90" rx="2" ry="2"/>
        <ellipse cx="210" cy="110" rx="2" ry="2"/>
        <ellipse cx="210" cy="130" rx="2" ry="2"/>
        <ellipse cx="210" cy="170" rx="2" ry="2"/>
        <ellipse cx="210" cy="190" rx="2" ry="2"/>
        <ellipse cx="210" cy="210" rx="2" ry="2"/>
        <ellipse cx="210" cy="230" rx="2" ry="2"/>
        <ellipse cx="210" cy="250" rx="2" ry="2"/>

        <ellipse cx="50" cy="250" rx="2" ry="2"/>
        <ellipse cx="70" cy="250" rx="2" ry="2"/>
        <ellipse cx="90" cy="250" rx="2" ry="2"/>
        <ellipse cx="110" cy="250" rx="2" ry="2"/>
        <ellipse cx="130" cy="250" rx="2" ry="2"/>
        <ellipse cx="150" cy="250" rx="2" ry="2"/>
        <ellipse cx="170" cy="250" rx="2" ry="2"/>
        <ellipse cx="190" cy="250" rx="2" ry="2"/>

        <ellipse cx="50" cy="70" rx="2" ry="2"/>
        <ellipse cx="50" cy="90" rx="2" ry="2"/>
        <ellipse cx="50" cy="110" rx="2" ry="2"/>
        <ellipse cx="50" cy="130" rx="2" ry="2"/>
        <ellipse cx="50" cy="150" rx="2" ry="2"/>
        <ellipse cx="50" cy="170" rx="2" ry="2"/>
        <ellipse cx="50" cy="190" rx="2" ry="2"/>
        <ellipse cx="50" cy="210" rx="2" ry="2"/>
        <ellipse cx="50" cy="230" rx="2" ry="2"/>

        <ellipse cx="10" cy="10" rx="2" ry="2"/>
        <ellipse cx="30" cy="10" rx="2" ry="2"/>
        <ellipse cx="50" cy="10" rx="2" ry="2"/>
        <ellipse cx="70" cy="10" rx="2" ry="2"/>
        <ellipse cx="90" cy="10" rx="2" ry="2"/>
        <ellipse cx="110" cy="10" rx="2" ry="2"/>
        <ellipse cx="130" cy="10" rx="2" ry="2"/>
        <ellipse cx="150" cy="10" rx="2" ry="2"/>
        <ellipse cx="170" cy="10" rx="2" ry="2"/>
        <ellipse cx="190" cy="10" rx="2" ry="2"/>
        <ellipse cx="210" cy="10" rx="2" ry="2"/>

        <ellipse cx="10" cy="30" rx="2" ry="2"/>
        <ellipse cx="10" cy="50" rx="2" ry="2"/>
        <ellipse cx="10" cy="70" rx="2" ry="2"/>
        <ellipse cx="10" cy="90" rx="2" ry="2"/>
        <ellipse cx="10" cy="110" rx="2" ry="2"/>
        <ellipse cx="10" cy="130" rx="2" ry="2"/>
        <ellipse cx="10" cy="150" rx="2" ry="2"/>
        <ellipse cx="10" cy="170" rx="2" ry="2"/>
        <ellipse cx="10" cy="190" rx="2" ry="2"/>
        <ellipse cx="10" cy="210" rx="2" ry="2"/>
        <ellipse cx="10" cy="230" rx="2" ry="2"/>
        <ellipse cx="10" cy="250" rx="2" ry="2"/>
        <ellipse cx="10" cy="270" rx="2" ry="2"/>

        <ellipse cx="10" cy="290" rx="2" ry="2"/>
        <ellipse cx="30" cy="290" rx="2" ry="2"/>
        <ellipse cx="50" cy="290" rx="2" ry="2"/>
        <ellipse cx="70" cy="290" rx="2" ry="2"/>
        <ellipse cx="90" cy="290" rx="2" ry="2"/>
        <ellipse cx="110" cy="290" rx="2" ry="2"/>
        <ellipse cx="130" cy="290" rx="2" ry="2"/>
        <ellipse cx="150" cy="290" rx="2" ry="2"/>
        <ellipse cx="170" cy="290" rx="2" ry="2"/>
        <ellipse cx="190" cy="290" rx="2" ry="2"/>
        <ellipse cx="210" cy="290" rx="2" ry="2"/>
    </g>
</svg>
